<svg xmlns="http://www.w3.org/2000/svg" xmlns:xlink="http://www.w3.org/1999/xlink" width="500" zoomAndPan="magnify" viewBox="0 0 375 374.999991" height="500" preserveAspectRatio="xMidYMid meet" version="1.2"><defs><clipPath id="3a2c543859"><path d="M 71.808594 26 L 299 26 L 299 318.847656 L 71.808594 318.847656 Z M 71.808594 26 "/></clipPath></defs><g id="4832e7eb9a"><rect x="0" width="375" y="0" height="374.999991" style="fill:#ffffff;fill-opacity:1;stroke:none;"/><rect x="0" width="375" y="0" height="374.999991" style="fill:#000000;fill-opacity:1;stroke:none;"/><g clip-rule="nonzero" clip-path="url(#3a2c543859)"><path style=" stroke:none;fill-rule:nonzero;fill:#ffffff;fill-opacity:1;" d="M 98.34375 93.523438 C 96.5 97.445312 94.503906 101.328125 93.039062 105.691406 C 92.304688 104.800781 92.808594 104.078125 92.890625 103.429688 C 93.382812 99.644531 94.429688 96.054688 97.003906 93.105469 C 97.632812 92.382812 97.601562 91.859375 96.929688 91.261719 C 96.679688 91.03125 96.449219 90.761719 96.304688 90.457031 C 95.558594 88.960938 94.933594 89.378906 94.042969 90.40625 C 91.65625 93.1875 89.460938 96.085938 87.828125 99.371094 C 87.554688 99.914062 87.242188 100.4375 86.800781 100.878906 C 87.671875 96.222656 89.136719 91.902344 93.214844 88.949219 C 93.65625 88.625 94.648438 88.480469 94.335938 87.714844 C 93.96875 86.785156 93.375 85.894531 92.683594 85.164062 C 92.335938 84.796875 91.75 85.394531 91.34375 85.644531 C 87.941406 87.757812 85.234375 90.570312 82.953125 93.824219 C 82.472656 94.507812 81.988281 95.195312 81.402344 96.035156 C 81.289062 95.644531 81.171875 95.46875 81.226562 95.363281 C 83.371094 90.707031 85.714844 86.175781 90.757812 83.992188 C 93.050781 82.996094 91.195312 81.824219 90.933594 80.871094 C 90.527344 79.367188 89.628906 80.609375 89.136719 80.902344 C 82.910156 84.503906 78.378906 89.808594 74.46875 95.71875 C 73.652344 96.945312 72.898438 98.210938 72.125 99.445312 C 71.808594 99.390625 71.902344 99.203125 71.964844 99.078125 C 75.710938 90.65625 80.191406 82.851562 89.324219 79.113281 C 90.160156 78.78125 90.277344 78.277344 90.054688 77.515625 C 89.460938 75.328125 89.761719 73.226562 90.621094 71.164062 C 91.886719 68.140625 92.660156 65.011719 92.683594 61.707031 C 92.714844 58.210938 94.335938 55.636719 97.277344 53.816406 C 99.453125 52.457031 101.574219 51.011719 103.753906 49.664062 C 104.964844 48.917969 105.332031 48.175781 104.578125 46.773438 C 103.585938 44.921875 102.582031 43.101562 101.28125 41.417969 C 103.699219 42.683594 105.40625 44.566406 106.222656 47.214844 C 108.210938 46.105469 108.179688 46.117188 107.363281 44.148438 C 106.691406 42.515625 105.40625 41.28125 104.632812 39.703125 C 106.628906 40.914062 108.375 42.339844 109.128906 44.808594 C 109.683594 44.429688 110.207031 44.105469 110.710938 43.75 C 113.816406 41.617188 117.007812 39.609375 120.472656 38.121094 C 122.921875 37.074219 124.636719 35.832031 125.816406 33.101562 C 128.613281 26.6875 136.292969 24.886719 142.914062 28.746094 C 144.367188 29.59375 145.6875 29.699219 147.257812 29.5625 C 161.078125 28.320312 174.4375 30.003906 187.046875 36.125 C 188.082031 36.625 189.011719 36.75 190.144531 36.59375 C 195.835938 35.832031 200.929688 37.085938 204.925781 41.460938 C 209.113281 46.042969 209.613281 52.917969 206.109375 58.054688 C 205.511719 58.933594 205.679688 59.613281 205.953125 60.429688 C 207.492188 65.125 209.667969 69.488281 212.648438 73.445312 C 214.195312 75.496094 213.683594 76.886719 211.039062 77.535156 C 212.835938 80.613281 214.332031 83.792969 215.546875 87.097656 C 215.703125 87.527344 215.890625 87.945312 216.019531 88.386719 C 216.53125 90.113281 215.453125 91.585938 213.769531 91.136719 C 212.011719 90.667969 212.1875 91.535156 212.28125 92.644531 C 212.773438 99.121094 213.539062 105.566406 214.488281 112 C 217.691406 133.617188 224.710938 153.988281 234.484375 173.46875 C 236.117188 176.722656 237.800781 179.964844 238.859375 183.480469 C 239.652344 186.140625 239.675781 188.691406 237.226562 190.617188 C 236.535156 191.160156 237.015625 191.632812 237.203125 192.113281 C 240.363281 200.484375 243.023438 209.011719 244.90625 217.769531 C 246.738281 226.253906 247.910156 234.820312 248.253906 243.484375 C 248.316406 244.972656 248.566406 245.367188 250.1875 244.992188 C 256.792969 243.476562 262.796875 244.332031 267.347656 249.984375 C 267.851562 250.609375 268.457031 250.714844 269.148438 250.734375 C 271.03125 250.796875 272.894531 251.070312 274.691406 251.625 C 280.257812 253.308594 283.835938 257.011719 285.53125 262.527344 C 285.878906 263.648438 286.441406 264.335938 287.5 264.882812 C 301.382812 272.058594 302.964844 289.53125 290.585938 299.054688 C 289.496094 299.890625 288.976562 300.652344 289.015625 302.109375 C 289.132812 307.234375 286.464844 310.730469 282.039062 312.949219 C 277.78125 315.082031 273.113281 315.667969 268.457031 316.085938 C 255.304688 317.269531 242.144531 316.976562 229.011719 315.71875 C 227.265625 315.550781 225.875 315.585938 224.554688 316.890625 C 223.277344 318.148438 221.542969 318.410156 219.785156 318.398438 C 206.777344 318.378906 193.785156 318.378906 180.777344 318.367188 C 179.921875 318.367188 179.0625 318.292969 178.214844 318.386719 C 174.699219 318.804688 171.699219 317.71875 169.125 315.375 C 168.402344 314.714844 167.636719 314.464844 166.664062 314.476562 C 160.21875 314.515625 153.773438 314.507812 147.328125 314.464844 C 146.324219 314.453125 145.65625 314.769531 144.996094 315.53125 C 143.40625 317.394531 141.386719 318.367188 138.855469 318.367188 C 124.542969 318.347656 110.230469 318.417969 95.914062 318.347656 C 91.164062 318.324219 87.996094 315.4375 85.664062 311.671875 C 84.34375 309.546875 84.960938 307.359375 86.53125 305.496094 C 88.78125 302.828125 91.75 301.34375 95.027344 300.328125 C 96.238281 299.953125 98.039062 300.160156 98.488281 299.09375 C 98.742188 298.5 97.191406 297.160156 96.492188 296.125 C 89.503906 285.816406 87.0625 274.390625 88.257812 262.121094 C 89.125 253.121094 92.128906 244.8125 96.648438 237.03125 C 97.085938 236.265625 97.308594 235.480469 97.390625 234.613281 C 98.21875 224.957031 98.804688 215.277344 100.101562 205.664062 C 100.539062 202.398438 100.289062 199.25 99.933594 196.015625 C 99.222656 189.550781 100.101562 183.167969 101.25 176.804688 C 103.199219 166.125 106.808594 155.910156 110.144531 145.625 C 113.648438 134.820312 116.308594 123.84375 117.363281 112.492188 C 117.71875 108.683594 117.332031 106.183594 113.253906 104.457031 C 108.042969 102.257812 103.679688 98.535156 99.703125 94.453125 C 99.335938 94.109375 99.035156 93.660156 98.34375 93.523438 Z M 227.171875 183.050781 C 228.804688 184.121094 230.058594 185 231.367188 185.773438 C 232.078125 186.191406 232.894531 186.777344 233.722656 186.066406 C 234.558594 185.332031 234.066406 184.421875 233.722656 183.691406 C 232.277344 180.65625 230.875 177.589844 229.230469 174.660156 C 221.550781 160.921875 216.28125 146.308594 212.796875 131 C 209.675781 117.292969 207.761719 103.429688 207.207031 89.378906 C 207.167969 88.226562 206.84375 87.347656 205.972656 86.535156 C 204.925781 85.558594 203.953125 84.472656 203.328125 82.820312 C 205.722656 83.84375 207.847656 84.828125 210.324219 85.425781 C 207.722656 79.429688 203.921875 74.65625 199.277344 70.429688 C 201.734375 71.007812 203.953125 72.011719 206.632812 71.949219 C 204.761719 68.671875 203.191406 65.460938 202.125 62.03125 C 201.777344 60.941406 201.496094 59.875 199.539062 60.355469 C 200.953125 58.902344 201.933594 57.730469 202.699219 56.402344 C 206.128906 50.414062 203.523438 43.5 196.996094 41.292969 C 194.085938 40.308594 191.15625 40.351562 188.269531 41.3125 C 187.328125 41.628906 186.597656 41.542969 185.707031 41.09375 C 182.203125 39.292969 178.53125 37.914062 174.722656 36.886719 C 163.964844 34.011719 153.105469 33.875 142.171875 35.621094 C 131.804688 37.285156 122.042969 40.664062 113.410156 46.742188 C 108.574219 50.152344 104.160156 54.152344 99.054688 57.207031 C 97.054688 58.398438 96.238281 60.386719 96.375 62.742188 C 96.960938 62.75 97.160156 62.269531 97.484375 61.976562 C 99.316406 60.324219 100.320312 60.21875 101.996094 62 C 102.875 62.929688 103.324219 62.679688 104.160156 62.070312 C 106.746094 60.21875 108.523438 60.554688 110.425781 63.105469 C 110.804688 63.609375 111.140625 64.144531 111.421875 64.699219 C 112.5625 66.976562 111.964844 68.496094 109.601562 69.4375 C 107.84375 70.128906 106.023438 70.628906 104.160156 70.847656 C 102.664062 71.027344 102.382812 71.761719 102.453125 73.109375 C 102.707031 77.878906 106.324219 82.265625 111.527344 84.03125 C 113.941406 84.859375 116.445312 85.214844 119.046875 85.296875 C 118.820312 85.957031 118.390625 86 118.042969 86.113281 C 114.003906 87.496094 110.15625 87.085938 106.609375 84.710938 C 105.699219 84.105469 105.039062 83.980469 104.003906 84.410156 C 101.847656 85.296875 99.503906 84.679688 98.363281 83.058594 C 99.785156 83.101562 101.15625 83.070312 102.476562 82.640625 C 103.269531 82.390625 103.59375 82.042969 102.976562 81.195312 C 100.9375 78.425781 100.078125 75.285156 100.371094 71.855469 C 100.414062 71.308594 100.351562 70.859375 99.777344 70.578125 C 98.425781 69.917969 97.085938 69.21875 95.875 68.601562 C 93.027344 73.191406 93.476562 77.648438 95.875 82.160156 C 97.464844 85.152344 99.328125 87.933594 101.554688 90.46875 C 106.933594 96.597656 113.640625 100.773438 121.109375 103.902344 C 125.660156 105.804688 129.0625 108.765625 129.730469 114.050781 C 130.035156 116.46875 128.769531 121.175781 126.195312 122.253906 C 127.472656 115.367188 126.175781 110.839844 122.398438 109.113281 C 122.324219 110.199219 122.261719 111.277344 122.167969 112.34375 C 121.152344 124.503906 118.273438 136.273438 114.558594 147.84375 C 110.773438 159.667969 106.691406 171.40625 105.40625 183.867188 C 104.851562 189.164062 104.515625 194.445312 106.210938 199.625 C 106.933594 201.824219 108.074219 203.707031 110.5 205.191406 C 109.988281 202.828125 109.644531 200.828125 110.4375 198.472656 C 111.296875 200.808594 112.121094 202.734375 113.660156 204.230469 C 114.101562 204.65625 114.550781 205.253906 115.261719 204.910156 C 115.898438 204.59375 115.667969 203.914062 115.636719 203.371094 C 115.566406 202.0625 115.28125 200.753906 115.753906 199.226562 C 116.433594 200.230469 116.957031 201.039062 117.511719 201.824219 C 117.761719 202.179688 117.878906 202.828125 118.390625 202.773438 C 119.039062 202.710938 118.933594 201.988281 119.027344 201.539062 C 119.9375 197.019531 119.132812 192.5 119.195312 187.917969 C 115.25 189.328125 114.382812 188.660156 114.402344 184.476562 C 114.425781 181.148438 114.9375 177.894531 115.667969 174.671875 C 115.792969 174.117188 116.222656 173.5 115.3125 173.089844 C 113.828125 172.421875 113.972656 171.28125 114.339844 169.921875 C 115.167969 166.875 117.0625 164.074219 116.445312 160.660156 C 119.46875 161.960938 119.738281 162.546875 119.058594 165.496094 C 118.851562 166.375 118.398438 167.234375 118.527344 168.308594 C 120.136719 167.484375 121.257812 166.1875 123.253906 165.410156 C 120.460938 171.5 118.128906 177.359375 118.210938 184.121094 C 119.875 182.832031 121.277344 181.734375 122.699219 180.636719 C 123.128906 181.167969 122.972656 181.640625 122.953125 182.070312 C 122.722656 185.542969 122.710938 189.003906 122.972656 192.488281 C 123.246094 196.140625 123.035156 199.792969 121.988281 203.339844 C 121.359375 205.464844 117.542969 208.320312 115.375 208.300781 C 114.875 208.300781 114.371094 208.140625 113.890625 207.984375 C 113.453125 207.839844 113.09375 207.679688 112.613281 207.964844 C 111.148438 208.800781 109.777344 208.363281 108.417969 207.609375 C 107.070312 206.855469 106.191406 205.589844 105.039062 204.523438 C 104.964844 204.773438 104.914062 204.878906 104.902344 204.992188 C 103.667969 213.636719 103.105469 222.339844 102.644531 231.046875 C 102.246094 238.621094 101.898438 246.195312 101.878906 253.78125 C 101.878906 254.304688 101.597656 255.058594 102.296875 255.289062 C 102.882812 255.484375 103.363281 254.960938 103.753906 254.554688 C 104.515625 253.757812 105.25 252.933594 106.148438 251.949219 C 106.429688 254.082031 106.597656 255.9375 106.945312 257.765625 C 111.273438 281.058594 124.082031 297.484375 146.378906 306.0625 C 152.046875 308.25 157.980469 309.410156 164.089844 309.390625 C 164.730469 309.390625 165.691406 309.789062 165.816406 308.585938 C 166.035156 306.535156 167.367188 305.195312 168.820312 303.980469 C 171.65625 301.617188 175.035156 300.433594 178.582031 299.703125 C 180.707031 299.273438 182.859375 298.957031 185.152344 298.570312 C 184.492188 297.722656 183.960938 297.066406 183.457031 296.375 C 177.921875 288.769531 175.128906 280.242188 174.804688 270.867188 C 174.785156 270.300781 175.085938 269.632812 174.375 269.171875 C 171.082031 267.035156 170.722656 266.054688 171.476562 262.160156 C 171.886719 260.027344 172.441406 257.945312 173.078125 255.875 C 175.996094 246.394531 180.226562 237.625 187.183594 230.386719 C 187.578125 229.96875 187.871094 229.351562 188.75 229.265625 C 188.53125 229.757812 188.363281 230.15625 188.164062 230.542969 C 185.269531 235.847656 182.601562 241.265625 180.289062 246.855469 C 178.058594 252.230469 176.207031 257.726562 174.992188 263.425781 C 174.878906 263.960938 174.5 264.621094 175.085938 265.015625 C 175.726562 265.457031 176.269531 264.890625 176.761719 264.527344 C 177.472656 263.992188 178.152344 263.40625 178.84375 262.839844 C 178.949219 262.988281 179.011719 263.03125 179 263.0625 C 178.988281 263.292969 178.980469 263.511719 178.957031 263.730469 C 177.398438 276.652344 180.976562 287.953125 189.628906 297.660156 C 190.40625 298.53125 191.242188 298.90625 192.425781 299 C 199.121094 299.523438 205.472656 301.082031 210.816406 305.476562 C 211.371094 305.9375 212.082031 306.261719 212.324219 307.328125 C 209.226562 306.503906 206.257812 305.789062 203.335938 304.902344 C 196.933594 302.945312 190.425781 302.109375 183.761719 302.777344 C 179.804688 303.175781 175.996094 304.054688 172.628906 306.304688 C 169.542969 308.375 169.53125 309.695312 172.492188 311.972656 C 173.296875 312.589844 173.832031 312.738281 174.585938 311.808594 C 181.710938 302.996094 195.875 301.949219 203.199219 312.980469 C 203.589844 313.566406 203.976562 313.835938 204.707031 313.828125 C 208.808594 313.785156 212.921875 313.867188 217.023438 313.753906 C 221.164062 313.636719 223.226562 310.9375 222.359375 306.878906 C 222.117188 305.738281 222.390625 304.945312 223.175781 304.128906 C 225.320312 301.910156 227.214844 299.492188 228.875 296.886719 C 234.789062 287.628906 238.449219 277.488281 240.375 266.722656 C 243.617188 248.601562 241.945312 230.71875 237.476562 213.007812 C 234.871094 202.929688 231.378906 193.117188 227.171875 183.050781 Z M 131.5 307.277344 C 131.425781 307.414062 131.351562 307.558594 131.289062 307.695312 C 127.835938 306.765625 124.363281 305.90625 120.933594 304.890625 C 114.925781 303.101562 108.828125 302.171875 102.558594 302.820312 C 98.195312 303.28125 94.023438 304.304688 90.609375 307.328125 C 89.4375 308.363281 89.335938 309.421875 90.476562 310.53125 C 90.882812 310.929688 91.3125 311.304688 91.699219 311.722656 C 92.566406 312.644531 93.121094 312.65625 94.074219 311.566406 C 98.824219 306.148438 104.859375 304.066406 111.902344 305.59375 C 116.234375 306.535156 119.601562 309.171875 122.21875 312.738281 C 122.617188 313.273438 122.910156 313.859375 123.789062 313.835938 C 128.003906 313.785156 132.230469 313.867188 136.4375 313.753906 C 138.457031 313.691406 140.226562 312.90625 141.042969 310.8125 C 141.492188 309.664062 141.355469 308.949219 140.003906 308.3125 C 119.582031 298.71875 107.507812 282.699219 103.46875 260.550781 C 103.324219 259.765625 103.292969 259.398438 102.246094 259.585938 C 100.425781 259.921875 98.84375 258.675781 98.351562 256.785156 C 98.007812 255.445312 98.027344 254.074219 98.019531 252.703125 C 97.988281 250.652344 98.0625 248.601562 98.175781 246.539062 C 97.882812 246.824219 97.703125 247.105469 97.578125 247.410156 C 94.679688 254.335938 93.246094 261.542969 93.550781 269.066406 C 93.980469 279.824219 97.539062 289.3125 104.777344 297.378906 C 105.75 298.46875 106.777344 299.023438 108.3125 298.988281 C 112.5625 298.894531 116.695312 299.734375 120.722656 301.03125 C 124.761719 302.347656 128.402344 304.367188 131.5 307.277344 Z M 186.585938 307.445312 C 189.316406 308.625 192.132812 309.621094 193.929688 311.859375 C 195.980469 314.414062 198.480469 313.605469 201.117188 313.722656 C 198.210938 308.867188 191.054688 305.800781 186.585938 307.445312 Z M 120.292969 313.722656 C 117.40625 309.011719 110.46875 306.011719 105.9375 307.390625 C 106.167969 307.546875 106.335938 307.695312 106.535156 307.777344 C 109.539062 309.085938 112.394531 310.59375 114.457031 313.261719 C 114.726562 313.617188 115.082031 313.722656 115.503906 313.710938 C 117.03125 313.710938 118.558594 313.722656 120.292969 313.722656 Z M 187.277344 309.945312 C 183.5 307.96875 181.417969 308.070312 179.503906 310.269531 C 182.566406 312.183594 185.152344 312.109375 187.277344 309.945312 Z M 106.421875 310.039062 C 103.332031 307.976562 101.136719 308.039062 98.824219 310.269531 C 101.691406 312.214844 104.316406 312.132812 106.421875 310.039062 Z M 139.859375 32.242188 C 135.808594 30.042969 131.132812 31.257812 129.636719 34.660156 C 132.902344 33.707031 136.0625 32.597656 139.859375 32.242188 Z M 193.042969 313.835938 C 189.882812 310.550781 189.484375 310.5 186.367188 312.632812 C 188.21875 314.589844 190.539062 313.324219 193.042969 313.835938 Z M 112.183594 313.828125 C 109.253906 310.542969 108.574219 310.457031 105.511719 312.78125 C 107.457031 314.464844 109.695312 313.386719 112.183594 313.828125 Z M 175.777344 313.4375 C 177.167969 313.816406 178.414062 313.648438 179.648438 313.679688 C 180.171875 313.699219 180.589844 313.355469 180.675781 312.925781 C 180.769531 312.425781 180.160156 312.414062 179.835938 312.234375 C 177.609375 311.03125 177.609375 311.042969 175.777344 313.4375 Z M 95.257812 313.429688 C 96.492188 313.828125 97.734375 313.730469 98.972656 313.679688 C 99.390625 313.660156 99.714844 313.367188 99.890625 313 C 100.007812 312.757812 99.753906 312.632812 99.578125 312.488281 C 97.632812 310.929688 96.628906 311.125 95.257812 313.429688 Z M 95.257812 313.429688 "/></g><path style=" stroke:none;fill-rule:nonzero;fill:#ffffff;fill-opacity:1;" d="M 157.414062 156.71875 C 153.292969 162.210938 149.128906 167.566406 145.394531 173.226562 C 141.011719 179.859375 137.527344 186.953125 134.742188 194.394531 C 134.011719 196.351562 133.820312 198.390625 134.273438 200.453125 C 134.648438 202.210938 135.382812 203.757812 137.117188 205.066406 C 137.023438 203.109375 136.980469 201.382812 138.050781 199.5 C 138.488281 200.847656 138.78125 201.894531 139.167969 202.910156 C 139.566406 203.988281 140.171875 204.949219 140.96875 205.796875 C 141.3125 206.164062 141.691406 206.636719 142.265625 206.375 C 142.832031 206.132812 142.570312 205.578125 142.539062 205.160156 C 142.421875 203.675781 142.527344 202.242188 143.34375 200.609375 C 144.011719 202.25 144.515625 203.683594 145.351562 204.972656 C 145.96875 205.914062 146.578125 205.996094 147.445312 205.535156 C 148 205.242188 148.617188 205.023438 149.097656 204.648438 C 151.546875 202.722656 154.351562 202.042969 157.40625 201.613281 C 167.554688 200.167969 176.898438 196.257812 185.980469 191.664062 C 188.542969 190.367188 191.074219 189.015625 193.722656 187.832031 C 192.308594 190.25 190.351562 192.113281 188.101562 193.652344 C 178.402344 200.285156 167.585938 203.90625 155.992188 205.359375 C 154.664062 205.527344 153.503906 205.820312 152.363281 206.582031 C 150.101562 208.101562 147.769531 209.113281 144.839844 209.335938 C 142.652344 209.492188 140.90625 209.542969 138.886719 208.582031 C 137.890625 208.109375 136.363281 208.527344 135.246094 207.679688 C 131.6875 204.949219 130.054688 201.351562 130.714844 196.925781 C 131.46875 191.902344 133.800781 187.414062 135.957031 182.90625 C 140.226562 173.980469 145.5625 165.808594 153.417969 159.574219 C 154.539062 158.683594 155.710938 157.890625 156.871094 157.050781 C 157.039062 156.90625 157.238281 156.820312 157.414062 156.71875 Z M 157.414062 156.71875 "/><path style=" stroke:none;fill-rule:nonzero;fill:#ffffff;fill-opacity:1;" d="M 139.042969 62.09375 C 138.9375 60.605469 139.253906 59.339844 139.703125 58.105469 C 141.113281 54.214844 144.558594 51.734375 148.21875 51.976562 C 151.828125 52.203125 155.300781 55.144531 156.066406 59.003906 C 157.050781 63.953125 157.050781 64.339844 152.089844 66.414062 C 148.074219 68.097656 144.179688 67.355469 140.582031 64.960938 C 139.503906 64.226562 138.488281 63.484375 139.042969 62.09375 Z M 146.609375 58.441406 C 147.527344 58.230469 148.261719 57.75 148.28125 56.660156 C 148.300781 55.585938 147.695312 54.894531 146.628906 54.882812 C 145.632812 54.863281 144.820312 55.3125 144.789062 56.464844 C 144.753906 57.613281 145.445312 58.210938 146.609375 58.441406 Z M 146.609375 58.441406 "/><path style=" stroke:none;fill-rule:nonzero;fill:#ffffff;fill-opacity:1;" d="M 200.167969 52.445312 C 200.1875 56.347656 197.214844 59.363281 193.28125 59.414062 C 189.515625 59.464844 186.503906 56.433594 186.492188 52.582031 C 186.480469 48.636719 189.683594 45.476562 193.699219 45.488281 C 197.277344 45.476562 200.144531 48.5625 200.167969 52.445312 Z M 200.167969 52.445312 "/><path style=" stroke:none;fill-rule:nonzero;fill:#ffffff;fill-opacity:1;" d="M 128.328125 69.363281 C 135.046875 71.824219 140.632812 75.839844 144.964844 81.542969 C 150.394531 88.699219 152.632812 97.101562 154.296875 105.742188 C 149.703125 90.707031 142.964844 77.261719 128.328125 69.363281 Z M 128.328125 69.363281 "/><path style=" stroke:none;fill-rule:nonzero;fill:#ffffff;fill-opacity:1;" d="M 145.082031 99.550781 C 141.175781 89.652344 137.035156 80.496094 127.835938 74.730469 C 134.566406 74.65625 144.976562 89.484375 145.082031 99.550781 Z M 145.082031 99.550781 "/><path style=" stroke:none;fill-rule:nonzero;fill:#ffffff;fill-opacity:1;" d="M 136.40625 135.699219 C 132.796875 141.703125 129.691406 147.675781 127.347656 154.375 C 126.164062 149.152344 131.605469 138.019531 136.40625 135.699219 Z M 136.40625 135.699219 "/><path style=" stroke:none;fill-rule:nonzero;fill:#ffffff;fill-opacity:1;" d="M 125.011719 78.707031 C 131.289062 79.816406 137.996094 89.839844 137.515625 97.089844 C 134.566406 90.101562 131.605469 83.382812 125.011719 78.707031 Z M 125.011719 78.707031 "/><path style=" stroke:none;fill-rule:nonzero;fill:#ffffff;fill-opacity:1;" d="M 177.683594 223.605469 C 179.210938 216.992188 182.328125 211.449219 188.363281 207.871094 C 184.976562 213.238281 181.125 218.289062 177.683594 223.605469 Z M 177.683594 223.605469 "/><path style=" stroke:none;fill-rule:nonzero;fill:#ffffff;fill-opacity:1;" d="M 123.066406 82.808594 C 129.816406 86.207031 132.335938 93.375 131.4375 101.589844 C 129.679688 94.609375 128.214844 87.871094 123.066406 82.808594 Z M 123.066406 82.808594 "/><path style=" stroke:none;fill-rule:nonzero;fill:#ffffff;fill-opacity:1;" d="M 184.128906 204.0625 C 181.199219 208.65625 177.964844 212.996094 174.492188 217.171875 C 175.734375 211.355469 178.9375 206.980469 184.128906 204.0625 Z M 184.128906 204.0625 "/><path style=" stroke:none;fill-rule:nonzero;fill:#ffffff;fill-opacity:1;" d="M 214.679688 278.492188 C 217.261719 273.902344 219.660156 269.253906 221.84375 264.117188 C 222.882812 268.960938 219.492188 275.636719 214.679688 278.492188 Z M 214.679688 278.492188 "/><path style=" stroke:none;fill-rule:nonzero;fill:#ffffff;fill-opacity:1;" d="M 192.75 213.132812 C 189.714844 217.246094 186.765625 221.242188 183.78125 225.28125 C 183.152344 221.449219 188.4375 214.222656 192.75 213.132812 Z M 192.75 213.132812 "/><path style=" stroke:none;fill-rule:nonzero;fill:#ffffff;fill-opacity:1;" d="M 202.804688 113.589844 C 203.441406 108.402344 203.621094 103.703125 203.167969 98.859375 C 206.289062 101.140625 206.171875 109.46875 202.804688 113.589844 Z M 202.804688 113.589844 "/><path style=" stroke:none;fill-rule:nonzero;fill:#ffffff;fill-opacity:1;" d="M 130.527344 133.332031 C 128.589844 137.339844 126.75 141.378906 124.34375 145.230469 C 123.097656 141.945312 126.195312 135.917969 130.527344 133.332031 Z M 130.527344 133.332031 "/><path style=" stroke:none;fill-rule:nonzero;fill:#ffffff;fill-opacity:1;" d="M 210.105469 172.558594 C 207.007812 168.949219 204.320312 165.054688 201.820312 161.027344 C 206.707031 163.328125 208.882812 167.609375 210.105469 172.558594 Z M 210.105469 172.558594 "/><path style=" stroke:none;fill-rule:nonzero;fill:#ffffff;fill-opacity:1;" d="M 218.015625 282.773438 C 220.078125 278.566406 222.367188 274.8125 224.765625 270.824219 C 225.371094 274.976562 221.992188 280.960938 218.015625 282.773438 Z M 218.015625 282.773438 "/><path style=" stroke:none;fill-rule:nonzero;fill:#ffffff;fill-opacity:1;" d="M 189.316406 88.835938 C 186.011719 85.109375 182.695312 82.128906 178.632812 79.816406 C 182.632812 78.886719 188.039062 83.382812 189.316406 88.835938 Z M 189.316406 88.835938 "/><path style=" stroke:none;fill-rule:nonzero;fill:#ffffff;fill-opacity:1;" d="M 135.140625 110.117188 C 136.636719 113.316406 135.527344 119.21875 133.140625 121.382812 C 132.933594 121.574219 132.691406 121.867188 132.429688 121.636719 C 132.273438 121.488281 132.210938 121.113281 132.261719 120.871094 C 132.585938 119.3125 132.902344 117.753906 133.320312 116.214844 C 133.875 114.21875 134.511719 112.242188 135.140625 110.117188 Z M 135.140625 110.117188 "/><path style=" stroke:none;fill-rule:nonzero;fill:#ffffff;fill-opacity:1;" d="M 203.105469 155.976562 C 207.722656 156.84375 210.191406 159.847656 211.320312 164.199219 C 208.210938 161.832031 205.910156 158.652344 203.105469 155.976562 Z M 203.105469 155.976562 "/><path style=" stroke:none;fill-rule:nonzero;fill:#ffffff;fill-opacity:1;" d="M 177.953125 74.65625 C 182.503906 73.445312 186.335938 75.390625 188.878906 80.035156 C 185.488281 78.058594 182.160156 75.976562 177.953125 74.65625 Z M 177.953125 74.65625 "/><path style=" stroke:none;fill-rule:nonzero;fill:#ffffff;fill-opacity:1;" d="M 183.40625 93.648438 C 181.65625 90.488281 179.722656 88.019531 177.367188 85.726562 C 181.511719 85.234375 183.9375 89.621094 183.40625 93.648438 Z M 183.40625 93.648438 "/><path style=" stroke:none;fill-rule:nonzero;fill:#ffffff;fill-opacity:1;" d="M 201.726562 170.800781 C 205.136719 171.699219 207.070312 175.570312 205.929688 179.433594 C 204.476562 176.429688 203.128906 173.667969 201.726562 170.800781 Z M 201.726562 170.800781 "/><path style=" stroke:none;fill-rule:nonzero;fill:#ffffff;fill-opacity:1;" d="M 135.382812 151.246094 C 134.261719 154.113281 133.203125 156.8125 132.097656 159.667969 C 130.296875 156.632812 131.886719 152.59375 135.382812 151.246094 Z M 135.382812 151.246094 "/><path style=" stroke:none;fill-rule:nonzero;fill:#ffffff;fill-opacity:1;" d="M 143.804688 43.070312 C 141.585938 45.769531 139.585938 48.199219 137.441406 50.792969 C 137.472656 46.816406 139.964844 43.730469 143.804688 43.070312 Z M 143.804688 43.070312 "/><path style=" stroke:none;fill-rule:nonzero;fill:#ffffff;fill-opacity:1;" d="M 140.078125 117.410156 C 139.628906 120.410156 139.125 123.058594 138.320312 125.738281 C 136.28125 123.550781 137.023438 119.710938 140.078125 117.410156 Z M 140.078125 117.410156 "/><path style=" stroke:none;fill-rule:nonzero;fill:#ffffff;fill-opacity:1;" d="M 196.460938 110.902344 C 196.964844 108.296875 197.488281 105.921875 197.59375 103.421875 C 200.53125 105.804688 199.382812 109.761719 196.460938 110.902344 Z M 196.460938 110.902344 "/><path style=" stroke:none;fill-rule:nonzero;fill:#ffffff;fill-opacity:1;" d="M 147.476562 45.582031 C 145.925781 47.027344 144.660156 48.21875 143.386719 49.402344 C 143.1875 49.589844 142.914062 49.789062 142.621094 49.640625 C 142.222656 49.441406 142.378906 49.066406 142.421875 48.742188 C 142.769531 46.480469 144.398438 45.339844 147.476562 45.582031 Z M 147.476562 45.582031 "/><g style="fill:#ffffff;fill-opacity:1;"><g transform="translate(115.721041, 357.799985)"><path style="stroke:none" d="M 12.40625 -10.890625 C 12.40625 -11.023438 12.8125 -11.09375 13.625 -11.09375 C 15.4375 -11.09375 16.328125 -11.03125 16.296875 -10.90625 L 14.140625 -0.21875 C 14.097656 0.0078125 13.285156 0.125 11.703125 0.125 C 10.117188 0.125 9.304688 0.0078125 9.265625 -0.21875 L 8.359375 -5.140625 L 7.234375 -0.21875 C 7.191406 0 6.351562 0.109375 4.71875 0.109375 C 3.082031 0.109375 2.242188 -0.0195312 2.203125 -0.28125 L 0.234375 -11 C 0.191406 -11.082031 0.828125 -11.125 2.140625 -11.125 C 3.421875 -11.113281 4.0625 -11.085938 4.0625 -11.046875 L 5.078125 -3.609375 L 6.90625 -10.953125 C 6.9375 -11.046875 7.421875 -11.09375 8.359375 -11.09375 C 9.296875 -11.09375 9.78125 -11.046875 9.8125 -10.953125 L 11.609375 -3.703125 Z M 12.40625 -10.890625 "/></g></g><g style="fill:#ffffff;fill-opacity:1;"><g transform="translate(132.26209, 357.799985)"><path style="stroke:none" d="M 1.953125 -1.296875 C 1.035156 -2.304688 0.578125 -3.707031 0.578125 -5.5 C 0.578125 -7.289062 1.035156 -8.691406 1.953125 -9.703125 C 2.867188 -10.710938 4.101562 -11.21875 5.65625 -11.21875 C 7.207031 -11.21875 8.4375 -10.710938 9.34375 -9.703125 C 10.257812 -8.691406 10.71875 -7.289062 10.71875 -5.5 C 10.71875 -3.707031 10.257812 -2.304688 9.34375 -1.296875 C 8.4375 -0.285156 7.207031 0.21875 5.65625 0.21875 C 4.101562 0.21875 2.867188 -0.285156 1.953125 -1.296875 Z M 5.65625 -7.546875 C 4.832031 -7.546875 4.421875 -6.867188 4.421875 -5.515625 C 4.421875 -4.171875 4.832031 -3.5 5.65625 -3.5 C 6.488281 -3.5 6.90625 -4.171875 6.90625 -5.515625 C 6.90625 -6.867188 6.488281 -7.546875 5.65625 -7.546875 Z M 5.65625 -7.546875 "/></g></g><g style="fill:#ffffff;fill-opacity:1;"><g transform="translate(143.546078, 357.799985)"><path style="stroke:none" d="M 5.8125 -0.015625 C 5.8125 0.078125 5.144531 0.125 3.8125 0.125 C 2.46875 0.101562 1.796875 0.046875 1.796875 -0.046875 L 1.796875 -7.34375 L 1.203125 -7.34375 C 0.972656 -7.34375 0.785156 -7.484375 0.640625 -7.765625 C 0.503906 -8.054688 0.4375 -8.414062 0.4375 -8.84375 C 0.4375 -10.425781 0.90625 -11.21875 1.84375 -11.21875 C 2.507812 -11.21875 3.0625 -11.015625 3.5 -10.609375 C 3.9375 -10.210938 4.15625 -9.753906 4.15625 -9.234375 C 4.46875 -9.835938 4.882812 -10.316406 5.40625 -10.671875 C 5.925781 -11.035156 6.457031 -11.21875 7 -11.21875 C 7.84375 -11.21875 8.351562 -11 8.53125 -10.5625 C 8.582031 -10.445312 8.609375 -10.273438 8.609375 -10.046875 C 8.609375 -9.816406 8.535156 -9.40625 8.390625 -8.8125 C 8.253906 -8.226562 8.113281 -7.804688 7.96875 -7.546875 C 7.820312 -7.285156 7.734375 -7.15625 7.703125 -7.15625 C 7.671875 -7.15625 7.535156 -7.207031 7.296875 -7.3125 C 7.054688 -7.425781 6.835938 -7.484375 6.640625 -7.484375 C 6.085938 -7.484375 5.8125 -7.039062 5.8125 -6.15625 Z M 5.8125 -0.015625 "/></g></g><g style="fill:#ffffff;fill-opacity:1;"><g transform="translate(152.256531, 357.799985)"><path style="stroke:none" d="M 0.984375 -15.21875 C 0.984375 -15.457031 1.648438 -15.578125 2.984375 -15.578125 C 4.234375 -15.535156 4.859375 -15.441406 4.859375 -15.296875 L 4.859375 -6.84375 L 7.046875 -10.875 C 7.140625 -11.09375 7.757812 -11.203125 8.90625 -11.203125 C 10.050781 -11.203125 10.785156 -11.128906 11.109375 -10.984375 L 8.25 -6.3125 L 11.546875 -0.125 C 11.578125 -0.0703125 11.300781 -0.03125 10.71875 0 C 10.144531 0.0390625 9.664062 0.0625 9.28125 0.0625 C 7.875 0.0625 7.117188 0 7.015625 -0.125 L 4.84375 -5.015625 L 4.84375 -0.15625 C 4.84375 0.03125 4.195312 0.125 2.90625 0.125 C 1.625 0.125 0.984375 0.0390625 0.984375 -0.125 Z M 0.984375 -15.21875 "/></g></g><g style="fill:#ffffff;fill-opacity:1;"><g transform="translate(163.93645, 357.799985)"><path style="stroke:none" d="M 1.84375 -8.078125 L 0.765625 -8.078125 C 0.546875 -8.078125 0.4375 -8.5625 0.4375 -9.53125 C 0.4375 -10.507812 0.546875 -11 0.765625 -11 L 1.84375 -11 L 1.84375 -11.484375 C 1.84375 -13.035156 2.171875 -14.109375 2.828125 -14.703125 C 3.484375 -15.296875 4.394531 -15.59375 5.5625 -15.59375 C 6.738281 -15.59375 7.773438 -15.378906 8.671875 -14.953125 C 8.785156 -14.910156 8.84375 -14.753906 8.84375 -14.484375 C 8.84375 -14.210938 8.71875 -13.773438 8.46875 -13.171875 C 8.21875 -12.578125 8.003906 -12.234375 7.828125 -12.140625 C 7.328125 -12.453125 6.816406 -12.609375 6.296875 -12.609375 C 5.722656 -12.609375 5.4375 -12.226562 5.4375 -11.46875 L 5.4375 -11 L 7.265625 -11 C 7.523438 -11 7.65625 -10.53125 7.65625 -9.59375 C 7.65625 -8.5625 7.488281 -8.046875 7.15625 -8.046875 L 5.734375 -8.046875 L 5.734375 -0.265625 C 5.734375 -0.0859375 5.082031 0 3.78125 0 C 2.488281 0 1.84375 -0.0859375 1.84375 -0.265625 Z M 1.84375 -8.078125 "/></g></g><g style="fill:#ffffff;fill-opacity:1;"><g transform="translate(172.184985, 357.799985)"><path style="stroke:none" d="M 5 -0.171875 C 5 -0.046875 4.25 0.015625 2.75 0.015625 C 1.570312 0.00390625 0.984375 -0.0507812 0.984375 -0.15625 L 0.984375 -15.140625 C 0.984375 -15.359375 1.695312 -15.46875 3.125 -15.46875 C 4.375 -15.425781 5 -15.351562 5 -15.25 Z M 5 -0.171875 "/></g></g><g style="fill:#ffffff;fill-opacity:1;"><g transform="translate(178.167921, 357.799985)"><path style="stroke:none" d="M 1.953125 -1.296875 C 1.035156 -2.304688 0.578125 -3.707031 0.578125 -5.5 C 0.578125 -7.289062 1.035156 -8.691406 1.953125 -9.703125 C 2.867188 -10.710938 4.101562 -11.21875 5.65625 -11.21875 C 7.207031 -11.21875 8.4375 -10.710938 9.34375 -9.703125 C 10.257812 -8.691406 10.71875 -7.289062 10.71875 -5.5 C 10.71875 -3.707031 10.257812 -2.304688 9.34375 -1.296875 C 8.4375 -0.285156 7.207031 0.21875 5.65625 0.21875 C 4.101562 0.21875 2.867188 -0.285156 1.953125 -1.296875 Z M 5.65625 -7.546875 C 4.832031 -7.546875 4.421875 -6.867188 4.421875 -5.515625 C 4.421875 -4.171875 4.832031 -3.5 5.65625 -3.5 C 6.488281 -3.5 6.90625 -4.171875 6.90625 -5.515625 C 6.90625 -6.867188 6.488281 -7.546875 5.65625 -7.546875 Z M 5.65625 -7.546875 "/></g></g><g style="fill:#ffffff;fill-opacity:1;"><g transform="translate(189.451909, 357.799985)"><path style="stroke:none" d="M 12.40625 -10.890625 C 12.40625 -11.023438 12.8125 -11.09375 13.625 -11.09375 C 15.4375 -11.09375 16.328125 -11.03125 16.296875 -10.90625 L 14.140625 -0.21875 C 14.097656 0.0078125 13.285156 0.125 11.703125 0.125 C 10.117188 0.125 9.304688 0.0078125 9.265625 -0.21875 L 8.359375 -5.140625 L 7.234375 -0.21875 C 7.191406 0 6.351562 0.109375 4.71875 0.109375 C 3.082031 0.109375 2.242188 -0.0195312 2.203125 -0.28125 L 0.234375 -11 C 0.191406 -11.082031 0.828125 -11.125 2.140625 -11.125 C 3.421875 -11.113281 4.0625 -11.085938 4.0625 -11.046875 L 5.078125 -3.609375 L 6.90625 -10.953125 C 6.9375 -11.046875 7.421875 -11.09375 8.359375 -11.09375 C 9.296875 -11.09375 9.78125 -11.046875 9.8125 -10.953125 L 11.609375 -3.703125 Z M 12.40625 -10.890625 "/></g></g><g style="fill:#ffffff;fill-opacity:1;"><g transform="translate(205.992958, 357.799985)"><path style="stroke:none" d="M 1.453125 -3.953125 C 2.640625 -3.234375 3.578125 -2.875 4.265625 -2.875 C 4.703125 -2.875 4.921875 -3.03125 4.921875 -3.34375 C 4.921875 -3.5625 4.539062 -3.847656 3.78125 -4.203125 C 1.945312 -4.953125 1.03125 -6.175781 1.03125 -7.875 C 1.03125 -8.957031 1.425781 -9.785156 2.21875 -10.359375 C 3.007812 -10.929688 3.957031 -11.21875 5.0625 -11.21875 C 6.175781 -11.21875 7.117188 -11.097656 7.890625 -10.859375 C 8.660156 -10.628906 9.046875 -10.320312 9.046875 -9.9375 C 9.046875 -9.613281 8.882812 -9.1875 8.5625 -8.65625 C 8.25 -8.132812 8.035156 -7.851562 7.921875 -7.8125 C 7.285156 -8.164062 6.601562 -8.34375 5.875 -8.34375 C 5.476562 -8.34375 5.28125 -8.203125 5.28125 -7.921875 C 5.28125 -7.742188 5.351562 -7.59375 5.5 -7.46875 C 5.65625 -7.34375 5.9375 -7.1875 6.34375 -7 C 6.757812 -6.820312 7.101562 -6.660156 7.375 -6.515625 C 7.644531 -6.367188 7.953125 -6.160156 8.296875 -5.890625 C 8.992188 -5.335938 9.34375 -4.613281 9.34375 -3.71875 C 9.34375 -2.539062 8.953125 -1.585938 8.171875 -0.859375 C 7.398438 -0.140625 6.226562 0.21875 4.65625 0.21875 C 3.625 0.21875 2.679688 0.0390625 1.828125 -0.3125 C 0.972656 -0.664062 0.546875 -1.148438 0.546875 -1.765625 C 0.546875 -2.171875 0.644531 -2.597656 0.84375 -3.046875 C 1.039062 -3.503906 1.242188 -3.804688 1.453125 -3.953125 Z M 1.453125 -3.953125 "/></g></g><g style="fill:#ffffff;fill-opacity:1;"><g transform="translate(215.891193, 357.799985)"><path style="stroke:none" d="M 10.125 -4.1875 L 1.4375 -4.1875 C 1.164062 -4.1875 0.972656 -4.394531 0.859375 -4.8125 C 0.796875 -5.03125 0.765625 -5.242188 0.765625 -5.453125 C 0.765625 -5.660156 0.796875 -5.875 0.859375 -6.09375 C 0.972656 -6.519531 1.164062 -6.734375 1.4375 -6.734375 L 10.125 -6.734375 C 10.382812 -6.734375 10.570312 -6.519531 10.6875 -6.09375 C 10.75 -5.875 10.78125 -5.660156 10.78125 -5.453125 C 10.78125 -5.242188 10.75 -5.03125 10.6875 -4.8125 C 10.570312 -4.394531 10.382812 -4.1875 10.125 -4.1875 Z M 10.125 -4.1875 "/></g></g><g style="fill:#ffffff;fill-opacity:1;"><g transform="translate(227.439139, 357.799985)"><path style="stroke:none" d="M 5.03125 0 C 3.613281 0 2.515625 -0.457031 1.734375 -1.375 C 0.960938 -2.289062 0.578125 -3.644531 0.578125 -5.4375 C 0.578125 -7.238281 1.082031 -8.648438 2.09375 -9.671875 C 3.113281 -10.691406 4.472656 -11.203125 6.171875 -11.203125 C 7.867188 -11.203125 9.265625 -10.828125 10.359375 -10.078125 L 10.359375 0.875 C 10.359375 1.96875 9.914062 2.800781 9.03125 3.375 C 8.15625 3.957031 7.03125 4.25 5.65625 4.25 C 4.28125 4.25 3.046875 4.070312 1.953125 3.71875 C 1.804688 3.363281 1.734375 3.046875 1.734375 2.765625 C 1.734375 1.828125 1.890625 1.140625 2.203125 0.703125 C 3.179688 1.128906 4.226562 1.34375 5.34375 1.34375 C 6.15625 1.34375 6.5625 1.054688 6.5625 0.484375 L 6.5625 -0.171875 C 5.925781 -0.0546875 5.414062 0 5.03125 0 Z M 6.046875 -7.609375 C 5.066406 -7.609375 4.578125 -6.867188 4.578125 -5.390625 C 4.578125 -4.460938 4.765625 -3.863281 5.140625 -3.59375 C 5.390625 -3.394531 5.640625 -3.296875 5.890625 -3.296875 C 6.140625 -3.296875 6.363281 -3.316406 6.5625 -3.359375 L 6.5625 -7.546875 C 6.382812 -7.585938 6.210938 -7.609375 6.046875 -7.609375 Z M 6.046875 -7.609375 "/></g></g><g style="fill:#ffffff;fill-opacity:1;"><g transform="translate(238.789114, 357.799985)"><path style="stroke:none" d="M 1.953125 -1.296875 C 1.035156 -2.304688 0.578125 -3.707031 0.578125 -5.5 C 0.578125 -7.289062 1.035156 -8.691406 1.953125 -9.703125 C 2.867188 -10.710938 4.101562 -11.21875 5.65625 -11.21875 C 7.207031 -11.21875 8.4375 -10.710938 9.34375 -9.703125 C 10.257812 -8.691406 10.71875 -7.289062 10.71875 -5.5 C 10.71875 -3.707031 10.257812 -2.304688 9.34375 -1.296875 C 8.4375 -0.285156 7.207031 0.21875 5.65625 0.21875 C 4.101562 0.21875 2.867188 -0.285156 1.953125 -1.296875 Z M 5.65625 -7.546875 C 4.832031 -7.546875 4.421875 -6.867188 4.421875 -5.515625 C 4.421875 -4.171875 4.832031 -3.5 5.65625 -3.5 C 6.488281 -3.5 6.90625 -4.171875 6.90625 -5.515625 C 6.90625 -6.867188 6.488281 -7.546875 5.65625 -7.546875 Z M 5.65625 -7.546875 "/></g></g></g></svg>